<svg width="119" height="19" viewBox="0 0 119 19" fill="none" xmlns="http://www.w3.org/2000/svg">
<g clip-path="url(#clip0_1_429)">
<path fill-rule="evenodd" clip-rule="evenodd" d="M10.4688 14.0551L4.70114 17.8345L6.51321 11.1812L1.13654 6.86377L8.0241 6.53118L10.4688 0.0834961L12.9135 6.53118L19.801 6.86377L14.4244 11.1812L16.2364 17.8345L10.4688 14.0551Z" fill="#FFC54F"/>
</g>
<g clip-path="url(#clip1_1_429)">
<path fill-rule="evenodd" clip-rule="evenodd" d="M35.0938 14.0551L29.3261 17.8345L31.1382 11.1812L25.7615 6.86377L32.6491 6.53118L35.0938 0.0834961L37.5385 6.53118L44.426 6.86377L39.0494 11.1812L40.8614 17.8345L35.0938 14.0551Z" fill="#FFC54F"/>
</g>
<g clip-path="url(#clip2_1_429)">
<path fill-rule="evenodd" clip-rule="evenodd" d="M59.7188 14.0551L53.9511 17.8345L55.7632 11.1812L50.3865 6.86377L57.2741 6.53118L59.7188 0.0834961L62.1635 6.53118L69.051 6.86377L63.6744 11.1812L65.4864 17.8345L59.7188 14.0551Z" fill="#FFC54F"/>
</g>
<g clip-path="url(#clip3_1_429)">
<path fill-rule="evenodd" clip-rule="evenodd" d="M84.3438 14.0551L78.5761 17.8345L80.3882 11.1812L75.0115 6.86377L81.8991 6.53118L84.3438 0.0834961L86.7885 6.53118L93.676 6.86377L88.2994 11.1812L90.1114 17.8345L84.3438 14.0551Z" fill="#FFC54F"/>
</g>
<g clip-path="url(#clip4_1_429)">
<path fill-rule="evenodd" clip-rule="evenodd" d="M108.969 14.0551L103.201 17.8345L105.013 11.1812L99.6365 6.86377L106.524 6.53118L108.969 0.0834961L111.413 6.53118L118.301 6.86377L112.924 11.1812L114.736 17.8345L108.969 14.0551Z" fill="#FFC54F"/>
</g>
<defs>
<clipPath id="clip0_1_429">
<rect width="19.625" height="17.9896" fill="white" transform="translate(0.65625 0.0834961)"/>
</clipPath>
<clipPath id="clip1_1_429">
<rect width="19.625" height="17.9896" fill="white" transform="translate(25.2812 0.0834961)"/>
</clipPath>
<clipPath id="clip2_1_429">
<rect width="19.625" height="17.9896" fill="white" transform="translate(49.9062 0.0834961)"/>
</clipPath>
<clipPath id="clip3_1_429">
<rect width="19.625" height="17.9896" fill="white" transform="translate(74.5312 0.0834961)"/>
</clipPath>
<clipPath id="clip4_1_429">
<rect width="19.625" height="17.9896" fill="white" transform="translate(99.1562 0.0834961)"/>
</clipPath>
</defs>
</svg>
